<?xml version="1.0" encoding="UTF-8"?>
<svg width="100px" height="105px" viewBox="0 0 100 105" version="1.1" xmlns="http://www.w3.org/2000/svg" xmlns:xlink="http://www.w3.org/1999/xlink">
    <!-- Generator: Sketch 52.6 (67491) - http://www.bohemiancoding.com/sketch -->
    <title>Logos/HubSpot</title>
    <desc>Created with Sketch.</desc>
    <defs>
        <polygon id="path-1" points="0.000309378735 0 99.4522293 0 99.4522293 104.217771 0.000309378735 104.217771"></polygon>
    </defs>
    <g id="Page-1" stroke="none" stroke-width="1" fill="none" fill-rule="evenodd">
        <g id="HubSpot-Sprocket---Full-Color" transform="translate(-31.000000, -29.000000)">
            <g id="Logos/HubSpot/Sprocket---Full-Color" transform="translate(31.000000, 29.000000)">
                <g id="Page-1">
                    <mask id="mask-2" fill="white">
                        <use xlink:href="#path-1"></use>
                    </mask>
                    <g id="Clip-2"></g>
                    <path d="M72.2474522,75.1005732 C64.5442675,75.1005732 58.2984076,68.8559873 58.2984076,61.1528025 C58.2984076,53.4496178 64.5442675,47.2043949 72.2474522,47.2043949 C79.95,47.2043949 86.1952229,53.4496178 86.1952229,61.1528025 C86.1952229,68.8559873 79.95,75.1005732 72.2474522,75.1005732 M76.4232484,34.2999363 L76.4232484,21.8929299 C79.661465,20.3629936 81.9308917,17.0865605 81.9308917,13.2840127 L81.9308917,12.9973885 C81.9308917,7.75025478 77.6366242,3.4566242 72.3901274,3.4566242 L72.1035032,3.4566242 C66.8563694,3.4566242 62.5621019,7.75025478 62.5621019,12.9973885 L62.5621019,13.2840127 C62.5621019,17.0865605 64.8321656,20.3629936 68.0703822,21.8929299 L68.0703822,34.3005732 C63.2487261,35.0451592 58.8429936,37.0343312 55.2073248,39.9610828 L21.1410828,13.4604459 C21.3652866,12.5980255 21.5226115,11.7088535 21.5238854,10.7757325 C21.5315287,4.83178344 16.7194268,0.00757961783 10.7754777,-6.36942675e-05 C4.83216561,-0.00770700637 0.00732484076,4.8043949 0.000318471338,10.7483439 C-0.00732484076,16.6916561 4.80477707,21.5158599 10.7487261,21.5235032 C12.6856688,21.526051 14.4780255,20.9757325 16.05,20.0821019 L49.560828,46.1508917 C46.7105096,50.4528025 45.0417197,55.6056688 45.0417197,61.1528025 C45.0417197,66.9604459 46.8761146,72.3317834 49.9767516,76.7502548 L39.7856688,86.9413376 C38.9799363,86.6999363 38.1436306,86.5305096 37.2582803,86.5305096 C32.3748408,86.5305096 28.4149682,90.4903822 28.4149682,95.3744586 C28.4149682,100.258535 32.3748408,104.217771 37.2582803,104.217771 C42.1429936,104.217771 46.1022293,100.258535 46.1022293,95.3744586 C46.1022293,94.4897452 45.9334395,93.6528025 45.6914013,92.847707 L55.772293,82.7668153 C60.3480892,86.2604459 66.0461783,88.3578981 72.2474522,88.3578981 C87.272293,88.3578981 99.4525478,76.1776433 99.4525478,61.1528025 C99.4525478,47.5508917 89.4601911,36.313949 76.4232484,34.2999363" id="Fill-1" fill="#F3785B" mask="url(#mask-2)"></path>
                </g>
            </g>
        </g>
    </g>
</svg>